# xmcd
#
# Track frame offsets: 
#        150
#        23038
#        41967
#        63348
#        80698
#        102149
#
# Disc length: 1673 seconds
#
# Revision: 0
# Processed by: cddbd v1.5.2PL0 Copyright (c) Steve Scherf et al.
# Submitted via: ExactAudioCopy v1.0b6
#
DISCID=47068706
DTITLE=Anointed 2 Praise (The Jones') - Oh Give Thanks (2001)
DYEAR=2001
DGENRE=Gospel
TTITLE0=Oh Give Thanks
TTITLE1=I'm So Glad
TTITLE2=Don't Take Your Love Away
TTITLE3=Every Time I Turn Around
TTITLE4=I Want to Go Higher
TTITLE5=Gotta Fight Saints
EXTD=CD Baby id:a2p
EXTT0=
EXTT1=
EXTT2=
EXTT3=
EXTT4=
EXTT5=
PLAYORDER=
